<svg xmlns="http://www.w3.org/2000/svg" viewBox="0, 0, 400, 400">
   <path fill="#FF0000" d="M182.857 0.603 C 136.197 4.700,96.820 24.991,67.029 60.286 C 8.944 129.104,23.674 237.110,97.884 286.531 C 119.485 300.916,139.383 306.643,169.857 307.248 C 178.893 307.427,186.286 307.803,186.286 308.084 C 186.286 308.839,181.649 317.999,176.458 327.498 L 171.892 335.854 161.517 329.605 C 127.789 309.288,100.615 299.424,78.387 299.431 C 15.993 299.449,-7.370 362.769,44.666 390.828 C 81.871 410.890,147.495 396.873,185.823 360.676 C 187.846 358.765,189.338 357.767,189.770 358.034 C 190.152 358.270,194.474 361.416,199.375 365.025 C 222.265 381.882,241.227 393.029,255.403 397.964 L 261.253 400.000 285.055 400.000 C 311.780 399.999,309.912 400.251,319.646 395.350 C 347.264 381.446,369.752 351.559,374.882 321.942 C 379.960 292.630,368.857 272.769,350.939 279.111 C 331.779 285.893,332.001 312.784,351.298 322.824 C 360.904 327.822,362.355 330.063,361.427 338.477 C 358.391 366.002,318.886 385.970,275.918 381.697 C 253.147 379.433,232.431 372.986,205.857 359.893 C 193.549 353.829,193.645 353.900,195.490 352.231 C 204.161 344.393,222.290 315.914,229.687 298.511 C 230.925 295.599,230.936 295.590,236.463 293.438 C 322.450 259.949,392.911 147.927,382.579 61.139 C 376.612 11.024,339.020 -2.781,302.422 31.704 L 297.130 36.691 293.279 33.571 C 262.458 8.598,223.674 -2.981,182.857 0.603 M220.442 7.732 C 245.374 11.357,267.933 21.676,287.547 38.428 L 290.809 41.214 287.507 45.321 C 258.337 81.606,248.080 104.117,226.272 179.714 C 208.052 242.872,191.749 293.262,187.857 298.448 C 184.458 302.977,147.849 300.169,129.143 293.945 C 41.902 264.917,14.788 152.685,75.592 72.286 C 105.798 32.346,144.001 10.904,192.571 6.627 C 197.579 6.186,214.397 6.853,220.442 7.732 M347.729 20.051 C 363.832 23.028,370.395 39.334,369.525 74.206 C 367.302 163.337,313.931 250.669,240.857 284.746 C 234.029 287.931,234.280 288.346,237.070 278.474 C 240.334 266.923,247.667 237.044,254.015 209.429 C 268.144 147.967,279.437 108.452,291.805 77.204 C 296.047 66.487,301.413 54.850,302.103 54.871 C 303.497 54.914,314.210 71.290,323.143 87.033 C 326.286 92.572,329.189 97.113,329.594 97.124 C 330.178 97.139,334.624 95.160,335.298 94.584 C 336.495 93.562,315.251 59.467,308.133 50.988 L 305.605 47.976 308.914 43.881 C 323.547 25.769,336.302 17.939,347.729 20.051 M86.000 306.293 C 104.793 307.831,120.101 313.952,151.714 332.568 C 158.314 336.455,164.676 340.167,165.852 340.817 C 168.573 342.322,168.706 341.832,163.800 348.388 C 136.201 385.267,96.040 400.523,58.305 388.461 C 4.812 371.361,15.525 310.739,72.820 306.320 C 75.983 306.077,78.700 305.844,78.857 305.805 C 79.014 305.765,82.229 305.985,86.000 306.293" />
</svg>